<svg xmlns="http://www.w3.org/2000/svg" xmlns:xlink="http://www.w3.org/1999/xlink" viewBox="0,0,256,256" width="50px" height="50px" fill-rule="nonzero"><g fill-opacity="0" fill="#dddddd" fill-rule="nonzero" stroke="none" stroke-width="1" stroke-linecap="butt" stroke-linejoin="miter" stroke-miterlimit="10" stroke-dasharray="" stroke-dashoffset="0" font-family="none" font-weight="none" font-size="none" text-anchor="none" style="mix-blend-mode: normal"><path d="M0,256v-256h256v256z" id="bgRectangle"></path></g><g fill="#ffffff" fill-rule="nonzero" stroke="none" stroke-width="1" stroke-linecap="butt" stroke-linejoin="miter" stroke-miterlimit="10" stroke-dasharray="" stroke-dashoffset="0" font-family="none" font-weight="none" font-size="none" text-anchor="none" style="mix-blend-mode: normal"><g transform="translate(-2.74383,-2.02656) scale(5.12,5.12)"><path d="M34.02734,4c-0.10581,-0.003 -0.21141,0.01242 -0.31641,0.04492c-0.422,0.127 -0.71094,0.51508 -0.71094,0.95508c0,1.743 -2.57133,4.50691 -4.36133,6.00391c-5.997,0.138 -9.18106,3.67409 -10.16406,4.99609h-1.47461c-0.197,0 -0.39069,0.05897 -0.55469,0.16797l-2.74805,1.83203h-2.69727c-0.308,0 -0.59811,0.14177 -0.78711,0.38477c-0.189,0.242 -0.25859,0.55942 -0.18359,0.85742l1,4c0.07,0.283 0.26344,0.52134 0.52344,0.65234l0.86133,0.42969c0.532,0.375 1.62794,1.02278 3.58594,1.67578c0,0 -0.44033,-0.88834 -0.73633,-1.77734c1.255,-1.004 4.45033,-3.01966 7.73633,-0.72266v0.71094c0,0.865 -0.44867,1.753 -1.26367,2.5c-1.071,0.981 -2.59928,1.53759 -3.86328,1.43359c-0.347,-0.03 -0.55664,-0.09375 -0.55664,-0.09375v0.00195c-0.44,-0.148 -0.92497,0.02587 -1.16797,0.42188c-0.244,0.395 -0.18447,0.90442 0.14453,1.23242l2.11328,2.11328c0.548,0.548 1.29059,0.85352 2.05859,0.85352c0.062,0 0.12159,-0.00186 0.18359,-0.00586c0.863,-0.055 1.66903,-0.48559 2.20703,-1.18359c0.686,-0.888 2.81478,-2.2382 6.55078,-3.2832c0.01,0.114 0.02439,0.22775 0.02539,0.34375c0.025,2.982 -3.05103,5.67027 -3.08203,5.69727c-0.382,0.329 -0.45869,0.8925 -0.17969,1.3125c0.28,0.419 0.82734,0.56484 1.27734,0.33984l2.625,-1.3125c-0.069,0.403 -0.22475,0.75274 -0.46875,1.05273c-0.341,0.417 -0.83542,0.71292 -1.35742,0.91992c-0.709,0.201 -1.49247,0.35713 -2.35547,0.45312c-0.527,0.059 -0.91572,0.51883 -0.88672,1.04883c0.028,0.528 0.46509,0.94336 0.99609,0.94336c0.06,0 0.7115,-0.00873 1.5625,-0.17773c-1.092,1.876 -2.18877,4.45814 -1.50977,6.49414c0.115,0.347 0.41148,0.60397 0.77148,0.66797c0.059,0.011 0.11678,0.01563 0.17578,0.01563c0.301,0 0.5883,-0.136 0.7793,-0.375c0.033,-0.041 2.86242,-3.52594 6.60742,-5.71094c-0.163,0.397 -0.27625,0.62862 -0.28125,0.64063c-0.211,0.424 -0.09756,0.93652 0.27344,1.22852c0.183,0.144 0.40305,0.2168 0.62305,0.2168c0.227,0 0.45267,-0.07647 0.63867,-0.23047c9.619,-8.017 7.01084,-16.78367 5.21484,-20.51367c1.289,0.902 2.2038,3.08719 2.2168,3.11719c0.179,0.443 0.63814,0.69342 1.11914,0.60742c0.469,-0.091 0.80859,-0.50147 0.80859,-0.98047c0,-8.035 -6.02158,-11.66739 -8.01758,-12.65039c-0.193,-3.922 -2.06639,-6.7783 -2.15039,-6.9043c-0.183,-0.2745 -0.48725,-0.43631 -0.80469,-0.44531zM23,7c-9.925,0 -18,8.075 -18,18c0,9.925 8.075,18 18,18c0.553,0 1,-0.447 1,-1c0,-0.553 -0.447,-1 -1,-1c-8.822,0 -16,-7.178 -16,-16c0,-8.822 7.178,-16 16,-16c1.604,0 3.18608,0.23612 4.70508,0.70313c0.537,0.167 1.089,-0.13511 1.25,-0.66211c0.162,-0.528 -0.13316,-1.088 -0.66016,-1.25c-1.711,-0.524 -3.49192,-0.79102 -5.29492,-0.79102zM32.80664,9.64648c-0.276,2.545 -0.74886,4.01806 -0.75586,4.03906c-0.173,0.523 0.11077,1.08772 0.63477,1.26172c0.105,0.035 0.21141,0.05273 0.31641,0.05273c0.418,0 0.80731,-0.26459 0.94531,-0.68359c0.031,-0.092 0.5477,-1.68187 0.8457,-4.42187c0.122,0.658 0.20703,1.36047 0.20703,2.10547c0,0.415 0.25948,0.78755 0.64648,0.93555c0.242,0.092 4.88602,1.92183 6.66602,6.92383c-1.01,-0.826 -2.23691,-1.26964 -3.62891,-0.80664c-0.302,0.101 -0.53677,0.33762 -0.63477,0.64063c-0.098,0.303 -0.04442,0.63553 0.14258,0.89453c0.271,0.375 5.88542,8.39203 -0.89258,16.70703c0.485,-2.229 0.67786,-5.04706 -0.36914,-7.66406c-0.169,-0.421 -0.60383,-0.67605 -1.04883,-0.62305c-0.449,0.054 -0.80709,0.40256 -0.87109,0.85156c-0.006,0.041 -0.41592,2.65147 -2.91992,4.73047c0.055,-0.554 0.01763,-1.1482 -0.10937,-1.7832c-0.061,-0.306 -0.26102,-0.56612 -0.54102,-0.70312c-0.28,-0.137 -0.60772,-0.13509 -0.88672,0.00391l-0.06445,0.0332c0.547,-1.06 0.95041,-2.28856 0.94141,-3.60156c-0.014,-1.989 -0.95206,-3.77464 -2.78906,-5.30664c-0.426,-0.354 -1.0542,-0.29509 -1.4082,0.12891c-0.354,0.425 -0.29705,1.0552 0.12695,1.4082c0.595,0.495 1.05167,1.00706 1.38867,1.53906c-3.557,1.011 -6.31761,2.45608 -7.47461,3.95508c-0.188,0.242 -0.46,0.39216 -0.75,0.41016c-0.257,0.014 -0.51317,-0.07662 -0.70117,-0.26562l-0.375,-0.375c1.313,-0.258 2.61558,-0.90566 3.64258,-1.84766c1.231,-1.131 1.91016,-2.54261 1.91016,-3.97461v-1.21094c0,-0.304 -0.138,-0.59125 -0.375,-0.78125c-4.139,-3.312 -8.57811,-1.28097 -10.78711,0.58203l-0.98047,-0.48828l-0.57617,-2.3125h1.71875c0.197,0 0.39069,-0.05897 0.55469,-0.16797l2.74805,-1.83203h1.69727c0.352,0 0.67742,-0.18437 0.85742,-0.48437c0.028,-0.045 2.78258,-4.51562 9.14258,-4.51562c0.228,0 0.447,-0.07675 0.625,-0.21875c0.296,-0.237 1.82864,-1.49877 3.18164,-3.13477zM24,16.06055l-1.84961,0.79883l-1.01367,1.16016l1.58008,-0.02344zM35.67969,33.42969c0.046,1.355 -0.15569,2.67755 -0.42969,3.81055c-2.92,1.261 -5.45584,3.40648 -7.08984,5.02148c0.528,-1.579 1.60809,-3.32861 2.49609,-4.47461c2.545,-1.147 4.10144,-2.84542 5.02344,-4.35742z"></path></g></g></svg>